<svg width="229" height="73" viewBox="0 0 229 73" fill="none" xmlns="http://www.w3.org/2000/svg">
<path d="M85.4139 20.9687L80.0706 0.831665H82.804L85.8672 14.032C86.1968 15.4148 86.4807 16.7884 86.7188 18.1528C87.2316 16.0008 87.5338 14.76 87.6254 14.4303L91.4577 0.831665H94.672L97.5565 11.0238C98.28 13.5512 98.8019 15.9276 99.1224 18.1528C99.3789 16.8799 99.7131 15.4193 100.125 13.771L103.284 0.831665H105.963L100.441 20.9687H97.8725L93.628 5.62554C93.2709 4.34351 93.0603 3.55598 92.9962 3.26294C92.7856 4.18784 92.5887 4.97537 92.4055 5.62554L88.1336 20.9687H85.4139Z" fill="#2A2A2C"/>
<path d="M106.564 13.6749C106.564 10.9734 107.315 8.97256 108.817 7.67221C110.071 6.59164 111.601 6.05136 113.405 6.05136C115.41 6.05136 117.049 6.71069 118.322 8.02935C119.595 9.33885 120.231 11.152 120.231 13.4688C120.231 15.3461 119.948 16.825 119.38 17.9056C118.821 18.977 118.002 19.8103 116.921 20.4055C115.85 21.0008 114.677 21.2984 113.405 21.2984C111.363 21.2984 109.71 20.6436 108.446 19.3341C107.191 18.0246 106.564 16.1382 106.564 13.6749ZM109.105 13.6749C109.105 15.543 109.513 16.944 110.328 17.8781C111.143 18.803 112.168 19.2654 113.405 19.2654C114.632 19.2654 115.653 18.7984 116.468 17.8644C117.283 16.9303 117.69 15.5063 117.69 13.5924C117.69 11.7884 117.278 10.424 116.454 9.49911C115.639 8.56506 114.623 8.09803 113.405 8.09803C112.168 8.09803 111.143 8.56048 110.328 9.48537C109.513 10.4103 109.105 11.8068 109.105 13.6749Z" fill="#2A2A2C"/>
<path d="M122.975 20.9687V6.38103H125.201V8.59253C125.768 7.55775 126.29 6.87552 126.767 6.54586C127.252 6.21619 127.783 6.05136 128.36 6.05136C129.193 6.05136 130.04 6.31692 130.901 6.84805L130.049 9.14197C129.445 8.78483 128.841 8.60626 128.236 8.60626C127.696 8.60626 127.211 8.7711 126.78 9.10076C126.35 9.42127 126.043 9.86998 125.86 10.4469C125.585 11.326 125.448 12.2875 125.448 13.3315V20.9687H122.975Z" fill="#2A2A2C"/>
<path d="M132.175 20.9687V0.831665H134.648V20.9687H132.175Z" fill="#2A2A2C"/>
<path d="M147.817 20.9687V19.1281C146.892 20.5749 145.532 21.2984 143.738 21.2984C142.575 21.2984 141.503 20.9779 140.523 20.3368C139.553 19.6958 138.797 18.803 138.257 17.6583C137.726 16.5045 137.46 15.1812 137.46 13.6886C137.46 12.2326 137.703 10.9139 138.188 9.73262C138.674 8.54216 139.402 7.631 140.372 6.99915C141.343 6.36729 142.428 6.05136 143.628 6.05136C144.507 6.05136 145.29 6.23909 145.977 6.61454C146.663 6.98083 147.222 7.46159 147.652 8.05682V0.831665H150.111V20.9687H147.817ZM140.001 13.6886C140.001 15.5567 140.395 16.9532 141.183 17.8781C141.97 18.803 142.9 19.2654 143.971 19.2654C145.052 19.2654 145.967 18.8259 146.718 17.9468C147.478 17.0585 147.858 15.7078 147.858 13.8946C147.858 11.8983 147.474 10.4332 146.705 9.49911C145.935 8.56506 144.988 8.09803 143.861 8.09803C142.762 8.09803 141.842 8.54674 141.1 9.44416C140.368 10.3416 140.001 11.7564 140.001 13.6886Z" fill="#2A2A2C"/>
<path d="M80.7436 39.3529L84.6996 38.9683C84.9377 40.2961 85.4185 41.2713 86.1419 41.894C86.8745 42.5167 87.8589 42.8281 89.0951 42.8281C90.4046 42.8281 91.3891 42.5534 92.0484 42.0039C92.7169 41.4453 93.0511 40.7952 93.0511 40.0534C93.0511 39.5772 92.9092 39.1743 92.6253 38.8446C92.3506 38.5058 91.8652 38.2128 91.1693 37.9655C90.6931 37.8007 89.6079 37.5077 87.9138 37.0864C85.7344 36.5461 84.2051 35.8822 83.326 35.0947C82.0898 33.9867 81.4716 32.6359 81.4716 31.0426C81.4716 30.0169 81.7601 29.06 82.337 28.1717C82.9231 27.2743 83.761 26.5921 84.8507 26.1251C85.9496 25.658 87.2728 25.4245 88.8204 25.4245C91.3478 25.4245 93.248 25.9785 94.5209 27.0866C95.8029 28.1946 96.476 29.6735 96.5401 31.5233L92.4742 31.7019C92.3002 30.6671 91.9248 29.9254 91.3478 29.4767C90.7801 29.0188 89.9239 28.7899 88.7792 28.7899C87.5979 28.7899 86.673 29.0325 86.0045 29.5179C85.5741 29.8292 85.3589 30.2459 85.3589 30.7678C85.3589 31.244 85.5604 31.6515 85.9633 31.9904C86.4761 32.4207 87.7215 32.8695 89.6995 33.3365C91.6775 33.8035 93.1381 34.2888 94.0813 34.7925C95.0337 35.287 95.7754 35.9692 96.3066 36.8392C96.8468 37.7 97.117 38.7668 97.117 40.0397C97.117 41.1935 96.7965 42.2741 96.1555 43.2814C95.5144 44.2887 94.6079 45.0396 93.4357 45.5341C92.2636 46.0194 90.803 46.2621 89.0539 46.2621C86.5082 46.2621 84.5531 45.676 83.1886 44.5039C81.8242 43.3226 81.0092 41.6056 80.7436 39.3529Z" fill="#2A2A2C"/>
<path d="M109.971 45.905V43.7209C109.439 44.4993 108.739 45.1128 107.869 45.5616C107.008 46.0103 106.097 46.2346 105.136 46.2346C104.156 46.2346 103.277 46.0194 102.498 45.589C101.72 45.1586 101.157 44.5543 100.809 43.7759C100.461 42.9975 100.287 41.9215 100.287 40.5479V31.3173H104.147V38.0205C104.147 40.0717 104.215 41.3309 104.353 41.7979C104.499 42.2558 104.76 42.622 105.136 42.8968C105.511 43.1623 105.987 43.2951 106.564 43.2951C107.223 43.2951 107.814 43.1165 108.336 42.7594C108.858 42.3931 109.215 41.9444 109.407 41.4133C109.6 40.873 109.696 39.5589 109.696 37.471V31.3173H113.556V45.905H109.971Z" fill="#2A2A2C"/>
<path d="M115.736 31.3173H117.879V30.2184C117.879 28.9913 118.007 28.0756 118.264 27.4712C118.529 26.8668 119.01 26.3769 119.706 26.0014C120.411 25.6168 121.3 25.4245 122.371 25.4245C123.47 25.4245 124.546 25.5894 125.599 25.919L125.077 28.6113C124.463 28.4648 123.873 28.3915 123.305 28.3915C122.746 28.3915 122.343 28.5243 122.096 28.7899C121.858 29.0463 121.739 29.5453 121.739 30.2871V31.3173H124.624V34.353H121.739V45.905H117.879V34.353H115.736V31.3173Z" fill="#2A2A2C"/>
<path d="M125.104 31.3173H127.247V30.2184C127.247 28.9913 127.375 28.0756 127.632 27.4712C127.897 26.8668 128.378 26.3769 129.074 26.0014C129.779 25.6168 130.668 25.4245 131.739 25.4245C132.838 25.4245 133.914 25.5894 134.967 25.919L134.445 28.6113C133.831 28.4648 133.241 28.3915 132.673 28.3915C132.114 28.3915 131.711 28.5243 131.464 28.7899C131.226 29.0463 131.107 29.5453 131.107 30.2871V31.3173H133.992V34.353H131.107V45.905H127.247V34.353H125.104V31.3173Z" fill="#2A2A2C"/>
<path d="M136.162 29.3393V25.7679H140.022V29.3393H136.162ZM136.162 45.905V31.3173H140.022V45.905H136.162Z" fill="#2A2A2C"/>
<path d="M156.57 35.6304L152.766 36.3172C152.637 35.5571 152.344 34.9848 151.886 34.6002C151.438 34.2156 150.852 34.0233 150.128 34.0233C149.167 34.0233 148.397 34.3575 147.821 35.026C147.253 35.6853 146.969 36.7934 146.969 38.3501C146.969 40.0809 147.257 41.3034 147.834 42.0177C148.42 42.7319 149.203 43.0891 150.183 43.0891C150.916 43.0891 151.516 42.883 151.983 42.4709C152.45 42.0497 152.779 41.3309 152.972 40.3144L156.763 40.96C156.369 42.6999 155.613 44.014 154.496 44.9022C153.379 45.7905 151.882 46.2346 150.005 46.2346C147.871 46.2346 146.168 45.5616 144.895 44.2154C143.631 42.8693 142.999 41.0058 142.999 38.6249C142.999 36.2165 143.636 34.3438 144.909 33.0068C146.181 31.6607 147.903 30.9876 150.073 30.9876C151.85 30.9876 153.26 31.3722 154.304 32.1414C155.357 32.9015 156.113 34.0645 156.57 35.6304Z" fill="#2A2A2C"/>
<path d="M159.369 29.3393V25.7679H163.229V29.3393H159.369ZM159.369 45.905V31.3173H163.229V45.905H159.369Z" fill="#2A2A2C"/>
<path d="M175.506 41.2622L179.352 41.9078C178.857 43.318 178.074 44.394 177.003 45.1357C175.941 45.8683 174.608 46.2346 173.006 46.2346C170.469 46.2346 168.592 45.4059 167.374 43.7484C166.413 42.4206 165.932 40.7448 165.932 38.721C165.932 36.3035 166.564 34.4125 167.827 33.048C169.091 31.6744 170.689 30.9876 172.621 30.9876C174.792 30.9876 176.504 31.7065 177.759 33.1442C179.013 34.5727 179.613 36.7659 179.558 39.7237H169.888C169.915 40.8684 170.227 41.7613 170.822 42.4023C171.417 43.0341 172.159 43.3501 173.047 43.3501C173.651 43.3501 174.16 43.1852 174.572 42.8556C174.984 42.5259 175.295 41.9948 175.506 41.2622ZM175.726 37.3611C175.698 36.2439 175.41 35.3969 174.86 34.82C174.311 34.2339 173.642 33.9409 172.855 33.9409C172.012 33.9409 171.316 34.2476 170.767 34.8612C170.217 35.4747 169.947 36.308 169.956 37.3611H175.726Z" fill="#2A2A2C"/>
<path d="M195.846 45.905H191.986V38.46C191.986 36.885 191.903 35.8685 191.739 35.4106C191.574 34.9436 191.304 34.5819 190.928 34.3255C190.562 34.0691 190.118 33.9409 189.596 33.9409C188.927 33.9409 188.327 34.124 187.796 34.4903C187.265 34.8566 186.899 35.3419 186.697 35.9463C186.505 36.5507 186.409 37.6679 186.409 39.2979V45.905H182.549V31.3173H186.134V33.4601C187.407 31.8118 189.01 30.9876 190.942 30.9876C191.793 30.9876 192.572 31.1433 193.277 31.4546C193.982 31.7568 194.513 32.146 194.87 32.6222C195.237 33.0984 195.488 33.6387 195.626 34.2431C195.772 34.8474 195.846 35.7128 195.846 36.8392V45.905Z" fill="#2A2A2C"/>
<path d="M212.353 35.6304L208.548 36.3172C208.42 35.5571 208.127 34.9848 207.669 34.6002C207.22 34.2156 206.634 34.0233 205.911 34.0233C204.949 34.0233 204.18 34.3575 203.603 35.026C203.035 35.6853 202.752 36.7934 202.752 38.3501C202.752 40.0809 203.04 41.3034 203.617 42.0177C204.203 42.7319 204.986 43.0891 205.966 43.0891C206.698 43.0891 207.298 42.883 207.765 42.4709C208.232 42.0497 208.562 41.3309 208.754 40.3144L212.545 40.96C212.152 42.6999 211.396 44.014 210.279 44.9022C209.162 45.7905 207.664 46.2346 205.787 46.2346C203.654 46.2346 201.95 45.5616 200.677 44.2154C199.414 42.8693 198.782 41.0058 198.782 38.6249C198.782 36.2165 199.418 34.3438 200.691 33.0068C201.964 31.6607 203.686 30.9876 205.856 30.9876C207.632 30.9876 209.043 31.3722 210.087 32.1414C211.14 32.9015 211.895 34.0645 212.353 35.6304Z" fill="#2A2A2C"/>
<path d="M213.325 31.3173H217.432L220.921 41.6743L224.328 31.3173H228.325L223.174 45.3555L222.253 47.8967C221.915 48.7483 221.59 49.3985 221.278 49.8472C220.976 50.2959 220.623 50.6576 220.22 50.9324C219.827 51.2162 219.337 51.436 218.751 51.5917C218.174 51.7474 217.519 51.8252 216.786 51.8252C216.045 51.8252 215.317 51.7474 214.602 51.5917L214.259 48.5697C214.863 48.6888 215.408 48.7483 215.894 48.7483C216.791 48.7483 217.455 48.4828 217.885 47.9516C218.316 47.4297 218.645 46.7612 218.874 45.9462L213.325 31.3173Z" fill="#2A2A2C"/>
<path d="M81.7876 71.8387V51.7016H84.4524V69.4623H94.3698V71.8387H81.7876Z" fill="#2A2A2C"/>
<path d="M106.619 70.0393C105.703 70.8176 104.82 71.3671 103.968 71.6876C103.125 72.0081 102.219 72.1683 101.248 72.1683C99.6457 72.1683 98.414 71.7791 97.5532 71.0008C96.6924 70.2132 96.2621 69.2105 96.2621 67.9926C96.2621 67.2783 96.4223 66.6281 96.7428 66.0421C97.0725 65.4468 97.4983 64.9706 98.0203 64.6135C98.5514 64.2564 99.1466 63.9862 99.8059 63.8031C100.291 63.6749 101.024 63.5513 102.004 63.4322C104 63.1941 105.47 62.9102 106.413 62.5806C106.422 62.2418 106.427 62.0266 106.427 61.935C106.427 60.9277 106.193 60.218 105.726 59.8059C105.094 59.2473 104.156 58.968 102.91 58.968C101.747 58.968 100.887 59.174 100.328 59.5861C99.7785 59.989 99.371 60.7079 99.1054 61.7427L96.6879 61.413C96.9076 60.3782 97.2694 59.5449 97.773 58.9131C98.2767 58.272 99.0047 57.7821 99.957 57.4433C100.909 57.0953 102.013 56.9213 103.267 56.9213C104.513 56.9213 105.525 57.0678 106.303 57.3609C107.081 57.6539 107.654 58.0248 108.02 58.4735C108.386 58.9131 108.643 59.4717 108.789 60.1493C108.872 60.5705 108.913 61.3306 108.913 62.4295V65.7261C108.913 68.0246 108.963 69.4806 109.064 70.0942C109.174 70.6986 109.385 71.2801 109.696 71.8387H107.114C106.857 71.3259 106.692 70.7261 106.619 70.0393ZM106.413 64.5174C105.516 64.8837 104.169 65.195 102.375 65.4514C101.358 65.5979 100.639 65.7628 100.218 65.9459C99.7968 66.1291 99.4717 66.3992 99.2428 66.7563C99.0138 67.1043 98.8994 67.4935 98.8994 67.9239C98.8994 68.5832 99.1466 69.1327 99.6411 69.5722C100.145 70.0118 100.877 70.2316 101.839 70.2316C102.791 70.2316 103.638 70.0255 104.38 69.6134C105.122 69.1922 105.667 68.6199 106.015 67.8964C106.28 67.3378 106.413 66.5137 106.413 65.4239V64.5174Z" fill="#2A2A2C"/>
<path d="M114.899 71.8387H112.605V51.7016H115.077V58.8856C116.121 57.5761 117.453 56.9213 119.074 56.9213C119.972 56.9213 120.819 57.1045 121.615 57.4708C122.421 57.8279 123.081 58.3361 123.593 58.9955C124.115 59.6456 124.523 60.4332 124.816 61.3581C125.109 62.283 125.256 63.272 125.256 64.3251C125.256 66.825 124.637 68.7572 123.401 70.1217C122.165 71.4861 120.681 72.1683 118.951 72.1683C117.229 72.1683 115.878 71.4495 114.899 70.0118V71.8387ZM114.871 64.4349C114.871 66.184 115.109 67.4477 115.585 68.2261C116.364 69.499 117.417 70.1354 118.745 70.1354C119.825 70.1354 120.759 69.6684 121.547 68.7343C122.334 67.7911 122.728 66.39 122.728 64.5311C122.728 62.6264 122.348 61.2207 121.588 60.3141C120.837 59.4076 119.926 58.9543 118.855 58.9543C117.774 58.9543 116.84 59.4259 116.052 60.3691C115.265 61.3031 114.871 62.6584 114.871 64.4349Z" fill="#2A2A2C"/>
<path d="M27.2651 35.481L18.6848 7.05249C18.4282 6.20237 18.759 5.27743 19.5332 4.84251C24.3156 2.15592 30.0203 1.12318 33.5636 0.837739C34.6647 0.749031 35.5588 1.64377 35.5588 2.74851V33.9749C35.5588 35.1038 34.6199 36.0346 33.5103 36.2426C32.5521 36.4221 31.5179 36.7015 30.5922 37.0123C29.2987 37.4466 27.6594 36.7872 27.2651 35.481Z" fill="#2A2A2C"/>
<path d="M53.7657 7.05249L45.1854 35.481C44.7911 36.7872 43.1517 37.4466 41.8582 37.0123C40.9325 36.7015 39.8984 36.4221 38.9402 36.2426C37.8306 36.0346 36.8917 35.1038 36.8917 33.9749V2.74851C36.8917 1.64377 37.7857 0.749031 38.8869 0.837739C42.4301 1.12318 48.1348 2.15592 52.9172 4.84251C53.6914 5.27743 54.0222 6.20237 53.7657 7.05249Z" fill="#2A2A2C"/>
<path d="M66.6017 19.9444L51.6256 42.968C51.2176 43.5952 50.2809 43.5731 49.8401 42.9685C48.912 41.6954 47.7308 40.4677 46.3915 39.4402C45.8213 39.0028 45.551 38.2627 45.7689 37.5779L54.85 9.03829C55.2534 7.77059 56.7615 7.24018 57.824 8.04064C61.2096 10.5911 64.1124 13.6034 66.6591 17.8931C67.0369 18.5294 67.0052 19.3241 66.6017 19.9444Z" fill="#2A2A2C"/>
<path d="M54.9784 50.8346L71.0982 36.805C71.5406 36.42 71.7947 35.8594 71.774 35.2733C71.6067 30.5429 70.5747 26.4209 69.158 22.8709C68.699 21.7207 67.1613 21.6094 66.4749 22.6402L51.9451 44.4599C51.5692 45.0243 51.51 45.7393 51.759 46.3701C52.2971 47.7338 52.6278 48.8751 52.8247 49.9817C53.0019 50.9773 54.2155 51.4985 54.9784 50.8346Z" fill="#2A2A2C"/>
<path d="M66.2863 54.4527L53.4957 59.4914C52.7883 59.7701 52.0198 58.9393 52.2472 58.2138C52.6248 57.0094 52.8575 55.7209 52.988 54.6214C53.0509 54.0911 53.3009 53.5981 53.7095 53.2542L69.8073 39.7064C70.5393 39.0904 71.6293 39.6371 71.5132 40.5867C70.9104 45.5149 69.1959 50.1909 67.2623 53.6144C67.045 53.9992 66.6974 54.2907 66.2863 54.4527Z" fill="#2A2A2C"/>
<path d="M36.9527 70.1618L36.8558 71.3029C36.8311 71.5943 37.0597 71.8451 37.3521 71.839C41.043 71.7625 45.6968 70.8431 49.5325 69.276C49.9972 69.0861 49.8891 68.4375 49.3898 68.3852L44.3486 67.8568C44.1588 67.8369 43.9682 67.8723 43.7957 67.9541C41.934 68.8373 39.3432 69.5809 37.4501 69.6902C37.1908 69.7051 36.9747 69.9029 36.9527 70.1618Z" fill="#2A2A2C"/>
<path d="M53.0778 67.4099L47.3377 67.0514C46.7428 67.0143 46.506 66.2601 46.9583 65.8718C48.1949 64.81 48.8192 64.0591 50.2022 62.2977C50.3131 62.1563 50.4602 62.0471 50.6278 61.9821L64.2231 56.7067C64.6806 56.5292 65.0828 57.0426 64.7915 57.4375C61.0933 62.4499 57.2368 65.2163 53.6319 67.2817C53.4637 67.3781 53.2712 67.422 53.0778 67.4099Z" fill="#2A2A2C"/>
<path d="M5.84878 19.9444L20.8248 42.968C21.2328 43.5952 22.1696 43.5731 22.6103 42.9685C23.5384 41.6954 24.7196 40.4677 26.0589 39.4402C26.6291 39.0028 26.8995 38.2627 26.6816 37.5779L17.6005 9.03829C17.1971 7.77059 15.689 7.24018 14.6265 8.04064C11.2409 10.5911 8.33807 13.6034 5.79133 17.8931C5.41357 18.5294 5.44529 19.3241 5.84878 19.9444Z" fill="#2A2A2C"/>
<path d="M17.4721 50.8346L1.35225 36.805C0.909887 36.42 0.655742 35.8594 0.67647 35.2733C0.843774 30.5429 1.87582 26.4209 3.29245 22.8709C3.75146 21.7207 5.28919 21.6094 5.97562 22.6402L20.5054 44.4599C20.8812 45.0243 20.9404 45.7393 20.6915 46.3701C20.1533 47.7338 19.8227 48.8751 19.6258 49.9817C19.4486 50.9773 18.2349 51.4985 17.4721 50.8346Z" fill="#2A2A2C"/>
<path d="M6.16422 54.4527L18.9548 59.4914C19.6622 59.7701 20.4307 58.9393 20.2033 58.2138C19.8257 57.0094 19.593 55.7209 19.4625 54.6214C19.3995 54.0911 19.1495 53.5981 18.7409 53.2542L2.64316 39.7064C1.91118 39.0904 0.821185 39.6371 0.937321 40.5867C1.54002 45.5149 3.25458 50.1909 5.18817 53.6144C5.40551 53.9992 5.75302 54.2907 6.16422 54.4527Z" fill="#2A2A2C"/>
<path d="M35.4978 70.1618L35.5947 71.3029C35.6194 71.5943 35.3907 71.8451 35.0984 71.839C31.4074 71.7625 26.7536 70.8431 22.918 69.276C22.4533 69.0861 22.5614 68.4375 23.0606 68.3852L28.1018 67.8568C28.2916 67.8369 28.4823 67.8723 28.6547 67.9541C30.5164 68.8373 33.1073 69.5809 35.0004 69.6902C35.2597 69.7051 35.4758 69.9029 35.4978 70.1618Z" fill="#2A2A2C"/>
<path d="M19.3727 67.4099L25.1128 67.0514C25.7077 67.0143 25.9445 66.2601 25.4922 65.8718C24.2556 64.81 23.6313 64.0591 22.2483 62.2977C22.1373 62.1563 21.9903 62.0471 21.8227 61.9821L8.22734 56.7067C7.7699 56.5292 7.36767 57.0426 7.65898 57.4375C11.3572 62.4499 15.2137 65.2163 18.8186 67.2817C18.9868 67.3781 19.1793 67.422 19.3727 67.4099Z" fill="#2A2A2C"/>
</svg>
